<?xml version="1.0" encoding="UTF-8"?>
<!DOCTYPE svg PUBLIC "-//W3C//DTD SVG 1.1//EN" "http://www.w3.org/Graphics/SVG/1.1/DTD/svg11.dtd">
<svg xmlns="http://www.w3.org/2000/svg" version="1.1" width="193px" height="124px" style="shape-rendering:geometricPrecision; text-rendering:geometricPrecision; image-rendering:optimizeQuality; fill-rule:evenodd; clip-rule:evenodd" xmlns:xlink="http://www.w3.org/1999/xlink">
<g><path style="opacity:0.993" fill="#fbefef" d="M 74.5,2.5 C 76.1594,38.4072 77.1594,74.4072 77.5,110.5C 77.5,112.167 77.5,113.833 77.5,115.5C 72.5,115.5 67.5,115.5 62.5,115.5C 63.3589,77.4521 64.6922,39.4521 66.5,1.5C 67.6216,0.844172 68.9549,0.510839 70.5,0.5C 72.3328,0.585437 73.6661,1.2521 74.5,2.5 Z"/></g>
<g><path style="opacity:0.999" fill="#e3dad7" d="M 117.5,23.5 C 121.961,33.3806 121.295,42.8806 115.5,52C 117.017,53.6843 118.683,55.1843 120.5,56.5C 121.5,56.8333 122.167,57.5 122.5,58.5C 122.932,59.7095 123.599,60.7095 124.5,61.5C 125.167,61.8333 125.833,62.1667 126.5,62.5C 126.389,63.1174 126.056,63.6174 125.5,64C 133.044,80.9096 130.377,95.9096 117.5,109C 114.066,111.435 110.4,113.435 106.5,115C 99.1742,115.5 91.8409,115.666 84.5,115.5C 84.5,114.5 84.5,113.5 84.5,112.5C 84.5,109.5 84.5,106.5 84.5,103.5C 89.3165,102.674 94.3165,102.174 99.5,102C 103.157,101.163 106.157,99.3296 108.5,96.5C 114.54,91.2124 116.706,84.5457 115,76.5C 113.192,70.0454 109.359,65.2121 103.5,62C 96.913,60.788 90.2464,60.1213 83.5,60C 82.5333,55.5986 82.2,51.0986 82.5,46.5C 87.7043,46.7022 92.871,46.3689 98,45.5C 100.209,45.4428 101.709,44.4428 102.5,42.5C 103.329,43.3324 104.162,42.999 105,41.5C 107.446,36.6761 106.613,32.5094 102.5,29C 95.6154,27.5753 88.6154,27.0753 81.5,27.5C 81.3403,22.9555 81.3403,18.6222 81.5,14.5C 88.6549,13.3448 95.9882,13.1782 103.5,14C 109.175,15.8687 113.842,19.0353 117.5,23.5 Z"/></g>
<g><path style="opacity:0.052" fill="#161616" d="M 117.5,23.5 C 119.708,24.8936 121.208,26.8936 122,29.5C 122.887,33.3251 123.721,37.1584 124.5,41C 123.595,46.2992 122.262,51.4659 120.5,56.5C 118.683,55.1843 117.017,53.6843 115.5,52C 121.295,42.8806 121.961,33.3806 117.5,23.5 Z"/></g>
<g><path style="opacity:0.103" fill="#121212" d="M 74.5,2.5 C 76.7453,2.5412 77.4119,3.37453 76.5,5C 78.4545,7.16837 79.1212,9.5017 78.5,12C 79.0779,13.417 80.0779,14.2504 81.5,14.5C 81.3403,18.6222 81.3403,22.9555 81.5,27.5C 88.6154,27.0753 95.6154,27.5753 102.5,29C 106.613,32.5094 107.446,36.6761 105,41.5C 104.162,42.999 103.329,43.3324 102.5,42.5C 102.957,38.5804 101.291,36.0804 97.5,35C 91.9109,35.4383 86.2442,34.9383 80.5,33.5C 80.1924,32.6919 79.6924,32.0253 79,31.5C 78.8192,36.824 78.9859,42.1573 79.5,47.5C 79.3505,48.552 79.5172,49.552 80,50.5C 80.7914,49.255 81.2914,47.9217 81.5,46.5C 81.8333,46.5 82.1667,46.5 82.5,46.5C 82.2,51.0986 82.5333,55.5986 83.5,60C 90.2464,60.1213 96.913,60.788 103.5,62C 109.359,65.2121 113.192,70.0454 115,76.5C 116.706,84.5457 114.54,91.2124 108.5,96.5C 114.971,83.0271 111.638,73.5271 98.5,68C 92.2869,68.065 86.2869,67.2317 80.5,65.5C 81.3446,76.256 81.3446,86.756 80.5,97C 81.1197,99.4728 81.7864,101.973 82.5,104.5C 83.1835,104.137 83.8501,103.804 84.5,103.5C 84.5,106.5 84.5,109.5 84.5,112.5C 83.5902,114.019 82.7568,115.685 82,117.5C 81.0617,114.743 79.5617,112.41 77.5,110.5C 77.1594,74.4072 76.1594,38.4072 74.5,2.5 Z"/></g>
<g><path style="opacity:0.004" fill="#e8e8e8" d="M 81.5,46.5 C 81.2914,47.9217 80.7914,49.255 80,50.5C 79.5172,49.552 79.3505,48.552 79.5,47.5C 80.1667,47.1667 80.8333,46.8333 81.5,46.5 Z"/></g>
<g><path style="opacity:0.005" fill="#000000" d="M 122.5,58.5 C 124.048,58.8212 124.715,59.8212 124.5,61.5C 123.599,60.7095 122.932,59.7095 122.5,58.5 Z"/></g>
<g><path style="opacity:0.108" fill="#0e0e0e" d="M 66.5,1.5 C 64.6922,39.4521 63.3589,77.4521 62.5,115.5C 67.5,115.5 72.5,115.5 77.5,115.5C 77.5,113.833 77.5,112.167 77.5,110.5C 79.5617,112.41 81.0617,114.743 82,117.5C 82.7568,115.685 83.5902,114.019 84.5,112.5C 84.5,113.5 84.5,114.5 84.5,115.5C 91.8409,115.666 99.1742,115.5 106.5,115C 110.4,113.435 114.066,111.435 117.5,109C 130.377,95.9096 133.044,80.9096 125.5,64C 126.056,63.6174 126.389,63.1174 126.5,62.5C 135.882,78.1885 135.716,93.8552 126,109.5C 119.509,116.505 111.676,121.172 102.5,123.5C 96.1667,123.5 89.8333,123.5 83.5,123.5C 82.8549,122.188 81.8549,121.188 80.5,120.5C 78.8974,121.793 77.2307,122.793 75.5,123.5C 74.8333,123.5 74.1667,123.5 73.5,123.5C 73.1667,122.167 72.8333,122.167 72.5,123.5C 69.5,123.5 66.5,123.5 63.5,123.5C 62.4324,122.566 61.099,122.232 59.5,122.5C 59.4631,103.703 59.4631,85.2028 59.5,67C 60.3578,65.43 61.0245,63.7633 61.5,62C 61.3393,60.0436 61.0059,58.0436 60.5,56C 61.2012,49.0442 61.8678,42.0442 62.5,35C 62.6753,26.5946 62.342,18.5946 61.5,11C 62.3298,8.19829 63.1632,5.36495 64,2.5C 64.6708,1.74756 65.5041,1.41423 66.5,1.5 Z M 108.5,96.5 C 106.157,99.3296 103.157,101.163 99.5,102C 94.3165,102.174 89.3165,102.674 84.5,103.5C 83.8501,103.804 83.1835,104.137 82.5,104.5C 81.7864,101.973 81.1197,99.4728 80.5,97C 81.3446,86.756 81.3446,76.256 80.5,65.5C 86.2869,67.2317 92.2869,68.065 98.5,68C 111.638,73.5271 114.971,83.0271 108.5,96.5 Z"/></g>
</svg>
